/* XPM */
static char *images1709327434[] = {
/* columns rows colors chars-per-pixel */
"64 64 256 2 ",
"   c #060A08",
".  c #150A0A",
"X  c #07150A",
"o  c #15180C",
"O  c #040916",
"+  c #170D17",
"@  c #081717",
"#  c #1C1C1B",
"$  c #171816",
"%  c #250C15",
"&  c #24191C",
"*  c #062518",
"=  c #19261B",
"-  c #113017",
";  c #2B3408",
":  c #323B0B",
">  c #242819",
",  c #2B3516",
"<  c #333B15",
"1  c #242D02",
"2  c #081925",
"3  c #1A1A24",
"4  c #1C1B34",
"5  c #241D25",
"6  c #291C2A",
"7  c #1A2626",
"8  c #0E3A25",
"9  c #17382A",
"0  c #182A39",
"q  c #1C3C33",
"w  c #1A3634",
"e  c #072E32",
"r  c #232223",
"t  c #24242B",
"y  c #282828",
"u  c #283529",
"i  c #353927",
"p  c #282A33",
"a  c #253937",
"s  c #353839",
"d  c #33292E",
"f  c #16432B",
"g  c #1B4335",
"h  c #125533",
"j  c #264639",
"k  c #36473B",
"l  c #285438",
"z  c #34573A",
"x  c #314B2A",
"c  c #07672C",
"v  c #19662C",
"b  c #086A35",
"n  c #186835",
"m  c #167234",
"M  c #24682A",
"N  c #276936",
"B  c #346938",
"V  c #394213",
"C  c #424734",
"Z  c #457A36",
"A  c #162C4A",
"S  c #173348",
"D  c #192A57",
"F  c #183355",
"G  c #0B3346",
"H  c #283945",
"J  c #353A47",
"K  c #283858",
"L  c #293250",
"P  c #1F3661",
"I  c #473B4D",
"U  c #443E6E",
"Y  c #185745",
"T  c #135352",
"R  c #294645",
"E  c #364646",
"W  c #255749",
"Q  c #365849",
"!  c #38485A",
"~  c #2D4E56",
"^  c #166746",
"/  c #136C58",
"(  c #286645",
")  c #336A45",
"_  c #246155",
"`  c #0F5372",
"'  c #31536E",
"]  c #087A7A",
"[  c #10706F",
"{  c #307074",
"}  c #474A57",
"|  c #4A5053",
" . c #474A66",
".. c #465668",
"X. c #56576B",
"o. c #494778",
"O. c #564B7B",
"+. c #4A5B74",
"@. c #575878",
"#. c #524C68",
"$. c #6B5B7C",
"%. c #4A6576",
"&. c #58667A",
"*. c #4E6D72",
"=. c #646979",
"-. c #686F7A",
";. c #4E7A4A",
":. c #403637",
">. c #3A9218",
",. c #3C8C2A",
"<. c #429C1E",
"1. c #439728",
"2. c #478B3B",
"3. c #499937",
"4. c #40842F",
"5. c #4FA532",
"6. c #2C9B56",
"7. c #36985A",
"8. c #319550",
"9. c #29A252",
"0. c #0E8574",
"q. c #348774",
"w. c #30916E",
"e. c #1BAC79",
"r. c #1AB57D",
"t. c #27AB7C",
"y. c #23B37D",
"u. c #32A67F",
"i. c #1F9B47",
"p. c #518F4C",
"a. c #5AA848",
"s. c #468B68",
"d. c #4B8D6F",
"f. c #6CAF5A",
"g. c #075A86",
"h. c #165B89",
"j. c #0A6489",
"k. c #186489",
"l. c #056A96",
"z. c #107192",
"x. c #2C6E8C",
"c. c #0772A4",
"v. c #246598",
"b. c #4E4A88",
"n. c #564B88",
"m. c #565488",
"M. c #5C5396",
"N. c #544D92",
"B. c #665B88",
"V. c #625793",
"C. c #5A6985",
"Z. c #487685",
"A. c #517189",
"S. c #646C83",
"D. c #696B86",
"F. c #766A8A",
"G. c #68758A",
"H. c #74748D",
"J. c #6B7B93",
"K. c #677A91",
"L. c #767995",
"P. c #706E91",
"I. c #637CA7",
"U. c #846B8D",
"Y. c #867797",
"T. c #815F84",
"R. c #388888",
"E. c #2F8E91",
"W. c #1DB089",
"Q. c #29AA88",
"!. c #36A987",
"~. c #29B686",
"^. c #35B589",
"/. c #28AA94",
"(. c #35AC96",
"). c #29B598",
"_. c #37B698",
"`. c #2D9AAD",
"'. c #1DA4B5",
"]. c #37A7AA",
"[. c #37B8A6",
"{. c #28A6B9",
"}. c #34A9B9",
"|. c #37BCB6",
" X c #2BB1A8",
".X c #179495",
"XX c #4C918B",
"oX c #6B8396",
"OX c #74849B",
"+X c #77889B",
"@X c #729391",
"#X c #46A88A",
"$X c #46B598",
"%X c #4CAD93",
"&X c #7A8CA2",
"*X c #7C92A4",
"=X c #6993AC",
"-X c #46B8A8",
";X c #46BAB4",
":X c #51AFAB",
">X c #5FA3A6",
",X c #28C69C",
"<X c #30C59B",
"1X c #2CC4A5",
"2X c #38C5A7",
"3X c #3AC6B4",
"4X c #1CC596",
"5X c #47C3A8",
"6X c #47C5B8",
"7X c #56C4B6",
"8X c #4ECEAE",
"9X c #66C4AF",
"0X c #2C9DC3",
"qX c #28A8C4",
"wX c #2FAEC9",
"eX c #71A5CA",
"rX c #18D2D5",
"tX c #15CDCF",
"yX c #25C9C9",
"uX c #37C9C4",
"iX c #27D3D6",
"pX c #36D2D3",
"aX c #27DBE1",
"sX c #1AD9E1",
"dX c #48CAC7",
"fX c #52D2CA",
"gX c #63CFC6",
"hX c #8497AA",
"jX c #969AB6",
"kX c #8A96B0",
"lX c #96A5B9",
"zX c #95A8B1",
"xX c #A4ABBC",
"cX c #848799",
"vX c #99A8C3",
"bX c #97B1CA",
"nX c #A6A9C7",
"mX c #ABB9DB",
"MX c #AEB5CE",
"NX c #93BDF2",
"BX c #ABB9E7",
"VX c #B2BCE8",
"CX c #ABBDF1",
"ZX c #9B99C1",
"AX c #B4C5D9",
"SX c #8CC4E8",
"DX c #98CAE8",
"FX c #8DC3FC",
"GX c #94C7FB",
"HX c #9CD2EA",
"JX c #B8C6E6",
"KX c #B7C5F7",
"LX c #A7CDEF",
"PX c #8FC6DE",
"IX c #C6CCE9",
"UX c #C0C8DF",
/* pixels */
"6 6 & y 7 = 7 7 7 = > = = - - , y 6 & d d . d 5 5 y p t 5 r y > t 5 7 r 7 7 7 t 7 7 r 7 y t r # r > 5 7 t t 7 3 3 t t 3 5 p # r ",
"> > y i q 8 8 8 9 8 - 8 9 , f - y > i > , 1 < , > u u u u d , > u p p p a p a u a p p p p p p y i u i d d d s s p s s d d i = y ",
"= 9 Q ;.d.s.d.d.s.s.s.s.s.d.p.s.;.B p.;.p.f.p.p.p.p.p.p.p.p.p.;.k k s j R s a k E k k k k k } | i < < < , < < x < < i , i :.> ; ",
"* * W s.d.7.w.7.7.7.6.7.7.7.6.p.2.M p.4.3.f.5.4.4.3.3.p.3.3.2.Z j j a j j q a q q a a a a a k C , ; ; ; ; ; : : , , < , V x 1 > ",
"9 - ) d.s.6.7.9.9.6.9.a.7.7.7.7.8.M a.4.<.5.Z <.1.1.3.1.5.a.3.2.f q 9 q w 9 9 9 9 q q 9 9 a R C , 1 ; ; ; , : ; < ; , > i C > > ",
"- * z p.7.6.9.9.9.9.9.9.9.p.9.7.s.,.f.5.1.<.<.5.<.1.1.1.1.3.1.p.l j q g g g f q 9 g g j q j z z < ; ; : V V : ; < < ; ; i C > r ",
"u - ) d.s.8.6.i.9.9.9.9.9.7.7.7.N M p.4.Z <.<.<.>.<.1.1.3.3.3.2.x f 8 9 q q 9 8 9 f 9 9 9 q j k u , ; : < V : ; : , , > i :.y r ",
"7 X z d.7.8.7.i.9.i.9.9.7.7.7.7.p.B p.3.a.5.<.<.>.<.3.3.3.3.3.2.l j q f g g q g g j g q q a j | , : : < : : ; ; 1 ; < , k C u y ",
"u * | d.7.7.9.6.9.i.6.i.6.6.w.7.7.M p.3.a.<.<.<.<.<.>.1.5.5.3.B B q g R g w w q g w g q 9 q E k ; ; 1 ; 1 ; ; : ; : 1 ; i C 1 > ",
"= X ) d.d.7.w.6.6.6.7.7.w.7.s.w.7.N d.p.a.>.1.<.1.1.,.a.a.p.,.p.l a H a q w w q w w w w 7 a E Q < < < < : ; ; : 1 : : < i C & i ",
"y = Q d.d.d.d.q.w.s.q.s.s.d.d.d.;.Q *.p.p.,.2.3.,.p.p.p.p.8.;.p.j j R a a R R R a a E H a s E J i d < i i < , , > i C :.s i o > ",
"t $ J Q R W W W _ W W W W W _ W ~ j Q k z x z B M l z z z j z Q | &.&.*.*.-.&.*.%.*.-.-.*.=...E X.| X.X.X.X.#.} } X.| X.| } 3 5 ",
"y 3 d H 0 0 S S 4 A 4 0 A 0 0 0 ! J a 9 u = 9 8 = 9 a w w 9 7 a &.hX*X@XhX*X*X+XG.G.oX+XcX*XG.#.S.@.O.O.N.n.o.U O.m.O.@.@.#.4 p ",
"6 t J J A F L L D L D D L L H S ! ! H p j w u 9 q q 0 a a a a R *.hX+XoX*XoX@XoX@XoXOXOX+X+XK. .B.M.n.M.M.M.n.N.b.n.o.O.O.#.4 4 ",
"2 0 H S A D D P D D D D F F F S H Q 9 8 g f f f g e q g q 9 f j *.hX+XoX+XoX+XoX*X*X*X&X+X+XG...m.n.o.n.N.M.M.M.V.V.n.O.@.#.4 6 ",
"2 0 R S D D D D P D D D D F F G j Q f f f 8 f f f f f f f 8 f j X.hXoXK.+XK.&X*XK.oXOXoXG.J.C. .m.b.o.b.b.b.b.N.N.n.o.o. . .3 3 ",
"7 7 H L G F F D D L D D A D D F ~ Q 9 j f f f f 8 8 l f 8 f 8 j *.hX+XG.OX&XOXL.&X&X&XK.L.&XG.+.m.m.b.b.n.b.N.N.N.b.n.O.O. .0 3 ",
"7 @ R K A K P K D A D L A D F F ~ ~ e w 8 9 f f f - 9 8 9 x 9 q *.A.G.oX&XOXJ.kX&X&XcXL.+X&XC.! ! b.b.b.n.V.M.V.M.N.n.n.m. .4 4 ",
"7 2 H H G F F F A A A A A D D F ~ ~ w a w q j q w 9 j u w a w R X.oX=XoXOXOXK.I.&X&X&XOX&XhX&.! o.O.m.@.O.O.n.n.N.n.n.O.X.U 4 5 ",
"7 * R R A G A G F A L L A A A F ~ H a 0 0 a a u 9 7 a a w 7 p H *.@X*XOX*XkX*XkX&XL.&X&XhXhXS.+.@.O.O.O.O.O.B.V.O.n.n.n.$.#.6 6 ",
"3 @ k ..! ' ! ' +. .! K !  ...' ! ~ ' ..! } ..Q | | ! | ....} ! ..&.S.S.G.C.&.L.m.&.D.C.S.D.X. .D.B.B.$.@.B.B.B.O.V.B.B.F.| % + ",
"5 $ E &.%.&.m.D.S.@.X.+.m.S.C.&.+.! J.G.G.S.H.D.-.U.-.+X+XG.J.S.&.H.L.G.P.S.&.D.J.P.L.L.H.L.S.S.nXxXjXjXjXkXkXjXZXnXnXjXxX$.t d ",
"r # | &.C.C.C.C.+.+.....@.@.@.X.+.! H.F.$.U.U.F.T.U.U.U.T.=.F.D.} G.J.=.P.+XJ.P.L.L.L.L.G.H.-.S.jXkXjXlXlXlXvXbXZXMXvXkXzX=.@ $ ",
"r @ ! S.%.%.%.%.&.&.=.-.&.&.&.&.=. .H.F.U.U.U.U.T.U.$.U.U.$.F.@.X.S.G.K.&XJ.C.K.K.G.J.S.S.D.=.C.vXlXvXbXlXzXkXbXkXvXjXhXlX-.@ 7 ",
"7 @ E &.%.' ' %.%.*.%.%.%.%...' @.#.L.D.Y.U.$.$.T.U.U.U.F.U.H.D...K.+XoXK.*.A.A.K.oX=XA.J.J...OXvXlXlXzX*XhXkXbXbXbXjXjXnX-.@ # ",
"5 $ ! &.%.%.%.A.' %.X.%.+.%.%...X. .H.D.H.F.F.U.F.U.U.U.F.Y.F.=.S.+XG.S.K.K.oXoXK.G.G.C.+X+XX.L.nXlXlXjXxXbXzXzXjXZXjXjXlX=.2 t ",
"% % | X.+.%.m.+.%.C.&.S.C.C.C.&.X.} H.F.F.F.P.Y.F.F.F.F.H.Y.H.@.&.G.S.S.P.J.oXC.@.G.+XJ.L.-.#.cXnXjXzXzXxXbXzXhXvXnXjXnXxXX.+ 5 ",
"% % I #.X.m.%.+.+.@.&.&.@.@.@.@.@.} Y.F.F.P.P.L.P.P.D.D.L.Y.H.@.X.H.L.L.OXL.+XJ.&XP.D.P.kXY.X.$.xXzXxXzXzXzXzXlXkXkXxXnXMX$.+ & ",
"6 % I X.@.C.m.C.C.C.C.C.C.A.C.V.@.I H.F.P.P.J.P.L.I.L.L.L.kX+XP.X.H.J.K.G.K.J.J.*XK.C.P.cXL.@.=.nXzXxXzXzXzXzXAXzXxXxXMXxX=.o & ",
"& + J %.+.Z.Z.x.' { ' { ' x.x.A.%.K C.C.A.A.A.x.x.A.x.%.m.A.%.' ~ %.%.%.Z.*.Z.{ %.Z.oXXXA.%...%.@X@X@X@X@X@Xf.@X@X@X@X@XcX| o o ",
"* X T { R.x.E.E.E.E.E.x.E.E.`.E.{ T E.`.E.`.].`.].}.`.`.`.].].x./ R.XX>X>XE.E.E.:XE.x.XX%XXX{ T _ Y n ( W _ Y h ^ Y W W Q j - * ",
"e * _ :X:X}.{.}.wX}.{.}.}.wX0X}.E..XdXfXuXpXpXpXpXiXpXyXpXpXuX].E.;XgXdX;X-XdXgXgXfX;XdXgX:XR./ ^ Y ^ b b b b ^ ^ ^ ^ Y n v * * ",
"2 2 T ].'.'.'.'.'.'.'.'.'.'.qX}.E.] pX1XyXiXrXrXiXtXrXaXrXyXpX Xz.-X/.|.dX;X X X|.3XuXfX6X|.R./ ^ b b b ^ b b b b b b b ^ W * * ",
"4 2 ~ }.'.qXwXwXqXqXqXqXqXqXwXwXE.] pXyXyXiXsXrXrXrXrXrXtXtXpX{.[ ;X|.dXfXdXuXdXfXfXfXdX[.;XZ.T b c c b b b b b b i.b b ^ ^ * 3 ",
"+ 2 ~ :XqXqX0X0X0X0X'.0X'.qX0X}..X] pXyXrXrXrXtXrXsXsXsXtXrXaX|.[ :X}.|.;X].].|./.|.6X;X[.gXXXT b b b b b b c c c b c b ^ W @ 7 ",
"3 2 ` >X}.{.0X`.0X0X0XqX{.qX0X0X`.j.pXyXyXrXrXrXtXrXrXtXtXtXiX.Xz.9X[.3X6X-X]. X[.|.;XfXfXgXXXT n c b b b b h c c c c b N W @ # ",
"4 2 ` ].`.'.qXwXqXwXwXqX{.'.qX0Xx.[ yXyXyXrXrXrXtXrXwXsXtXiXpX'.0.7X[.3X6X6X|.|.3X1X X2X[.5XR.Y ^ c b b b c c v c c c b n l @ # ",
"O O F >X].qXqX{.0X0X0X{.{.`.{.;XE.[ uXuXpXyXpXyXtXtXwXiXtXiXdX/.[ 7X3X6X3X-X3X6X3X6X[. X/.6XXXY n v n b b h v h c v c n ( W + 5 ",
"% 2 ~ :X].`.`.`.`.:X].`./.`.`.].R./ ;X|.3X|.yX1XyX3XwXuXyXuXdX`.{ 9X5X6X-X_.-X;X8X8X-X-X(.:XXXR W h c c n h v v v v c n N j O & ",
"5 @ e { [ ] ] .Xz.z.[ ] z.0.k.[ ' e E.] ] [ .X.X0.0.0..X0.0.[ / T R.0.0.[ [ 0.[ 0.[ [ w.0.0.Y 9 N v v v n n h v v v v n h j o % ",
"# X ^ 9X[.3XuX3X6X6X3X[. X3X6X5XXXT $XQ.!.(.(./.(.).Q././.(.%X{ / #X.X<X_.(.)./.)./.[.).^._.{ Y N N N n n N N B M N m n ) k o + ",
"X   ^ 8X). X3X1X2X2X2X1X1X2X2X2XXX^ %Xt.Q.^._./.^.^.Q.Q.W.Q.!.q.[ $X/.1X).Q. X2X[.W.).Q.).$Xq.Y N B m N N N N N M v N n ) z o % ",
"o X ( 9X_.1X3X6X2X_.<X2X2X2X2X$X%X^ $Xe.y.~.<Xy.e.y.^.y.e.r.^.u./ %XQ._./.E.(.[.[././.!.(.$X{ Y ) N N n n N M N M M n v B k o % ",
"o X ^ 9X$X1X2X2X5X^.<X<X2X,X2X8X#X^ ^.e.y.y.r.e.e.<Xy.y.r.r.^.w./ !.Q.(.(.(.(./._.Q.(./.(.-Xd.l N M M n n N N M M n m N ) z $ % ",
"X X n 9X2X1X1X,X2X,X,X<X,X4X,X8X!.^ ~.e.y.y.y.e.e.y.y.y.r.r.~.w.[ $XW.[.[.).[.,X).W.).).)._.q.Y B N N M m N N N M m N m ) z $ o ",
"X   Y $X2X2X1X1X1X,X,X,X4X4X4X8Xq.b !.y.~.t.y.e.e.t.e.t.r.y.~.w./ -X).,X).).1X2X).W.).~.)._.q.Y N N N N N N N B M M m M ) l o . ",
"$ @ Y :X8X3X3X3X2X<X,X,X,X,X1X8XXXY ^.^.^.u.y.^.t.u.t.!.y.~.#Xw./ 5X~.).W./.).).).W. X).)._.q.Y N N N m N N N N M m m m B l o . ",
". @ ~ 9X-X2X2X5X5X5X2X2X2X2X2X8XXX^ %X$X#X!.#X#X!.#X#X#X!.!.%Xq.[ :X(.[.[.(.]./.3X/.[.(._.$Xd.W ) ) N N N ( B B N B ( ( ) k X . ",
"& + j XXq.0.w.0.#Xq.q.w.w.!.t.q.{ 8 XX{ { { { q.{ { { d.d.{ Z._ _ *.q.{ q.E.R.x.x.E.R.[ XXd.! s E k j j R W R R ~ S R H E j X o ",
"O   e d.w.w.e.w.0.q.q.q.q.w.0.0.{ G *X>X>X@X>X=X=X=X=X=XeX=X=XA.T _ ` [ [ ` ` ` ` ` [ / ` ' R @.hXhX*X*X*X*X*X*XkXkXkXcXcX| X o ",
"@ * Y #X!.~.~.~.^._.%X^.<X).<X^.XX{ LXHXHXDXDXHXHXDXHXHXHXHXHXeX` j.l.l.l.l.l.l.c.c.c.c.z.h.h.I.LXAXAXMXAXAXJXJXBXVXJXUXUX-.  . ",
"X @ W %X^.~.~.r.~.^.t.t.u.~.~.^.q._ HXSXPXPXPXHXSXSXGXSXSXSXHXeXg.v.c.c.c.c.c.c..Xl.l.l.c.` g.I.JXAXmXAXAXmXBXBXBXBXBXVXIXS.O $ ",
"X   j #X!.u.t.e.^._.$X!.^.t.^.5XXX{ DXSXSXGXGXGXFXFXGXGXGXGXLXeX` k.k.j.j.j.j.l.c.l.l.z.x.k.{ =XLXVXBXBXVXBXBXBXVXKXBXmXIXD.  2 ",
"@ @ l XXd.!.^.4Xt.t.u.!.!.^.Q.!.R.' DXSXSXFXFXFXFXFXFXFXGXFXGXeX` ` h.[ j.j.k.k.h.g.j.` k.` ' I.KXCXBXVXKXCXCXCXKXKXVXVXIXG.O 2 ",
"X X h #XQ.~.~.4X4X~.~.y.^.<X~.^.R.{ HXDXGXGXGXFXGXNXFXNXGXSXLXeX` k.k.j.g.g.h.l.z.j.l.j.k.` h.I.KXBXBXBXVXBXBXCXVXCXBXVXJXG.O O ",
"X @ Y %X^.^.W.r.y.<X~.y.e.e.~.$Xq.' HXPXSXFXNXNXGXFXNXGXGXNXLXeX` v.j.j.l.h.l.v.v.j.j.z.v.h.' I.KXBXmXBXBXmXnXBXBXVXBXmXVXP.O + ",
"X X ^ $Xu.y.W.r.r.y.~.~.t.t.~.$Xd.' JXPXDXBXGXCXNXKXNXNXGXBXBX=XP h.l.j.z.l.h.h.v.g.l.l.j.k.h.I.BXVXmXmXmXmXmXVXVXVXnXVXUX=.  $ ",
"X X W @Xd.#X$X^.^.#X%X!.#X#X#X%X*.+.JXAXJXLXCXCXCXKXCXBXJXJXLXjX` x.x.z.v.v.h.v.v.g.v.x.k.x.' K.IXIXUXVXAXUXJXJXMXVXMXIXIX-.@ O ",
". . $ s f f f f f f h f 9 8 9 j e @ J J ~ L K P P ' P K L K K L 4 A G e G G A A S e T G G S 7 L J L J H s H s H I K L L J 7   X ",
"% % . .       X                 + @ O O O O O 2 O O O O O O O O O O @ O O O + O O O O X X @   O O + O   O   O O O O   O O     o ",
"% & & % y r & & # & & & & & r y # d p s s t 7 y L r t s s p t s d p a 7 a H d 6 d p a 7 7 s d & 5 5 # # # = # 7 3 7 p t y r = # ",
"& & > % r # # $ & > & > & > 6 r 6 s J } | s s k } y s | | :.s | } s a a s J I d s J E E E C :.d 5 & & & & > = # 3 3 3 $ # # r > ",
"> * > $ = o y r = $ o & $ # & = 3 3 5 5 # o o o > o > > > 5 $ d d # 7 t 3 t d & & & = - 7 = & . & = # & o > # $ 3 7 5 4 y 7 $ o ",
"X   X X X   X   o .   . X . X   +   +   .   .   o   o     $ . . +   + @   . + . .       X   . . . . . . . X X o O + O   + . . + "
};
