/* XPM */
static char *c1709327434[] = {
/* columns rows colors chars-per-pixel */
"64 64 251 2 ",
"   c #00112A",
".  c #021A34",
"X  c #000D2A",
"o  c #082438",
"O  c #11293D",
"+  c #072744",
"@  c #163956",
"#  c #14344B",
"$  c #223A4C",
"%  c #233F55",
"&  c #2A4557",
"*  c #33495A",
"=  c #374F59",
"-  c #254966",
";  c #354D62",
":  c #395467",
">  c #335673",
",  c #3E617D",
"<  c #184161",
"1  c #44596A",
"2  c #465D73",
"3  c #515F6D",
"4  c #4B6475",
"5  c #4B6678",
"6  c #536B7C",
"7  c #566A79",
"8  c #59717C",
"9  c #50646E",
"0  c #63737D",
"q  c #464F5E",
"w  c #3B6588",
"e  c #016CAC",
"r  c #0268A3",
"t  c #0773AD",
"y  c #006EB2",
"u  c #0372B4",
"i  c #0C7BBC",
"p  c #0877B7",
"a  c #147DBC",
"s  c #197DB9",
"d  c #1477AE",
"f  c #336E99",
"g  c #496984",
"h  c #566E84",
"j  c #5C7484",
"k  c #5D798B",
"l  c #587387",
"z  c #577997",
"x  c #4B7597",
"c  c #637C8B",
"v  c #657988",
"b  c #657D93",
"n  c #707A84",
"m  c #547DA0",
"M  c #117FC1",
"N  c #1981BC",
"B  c #0C82BB",
"V  c #2A86BD",
"C  c #3986BA",
"Z  c #6B818C",
"A  c #76858C",
"S  c #6C8394",
"D  c #6A8599",
"F  c #728594",
"G  c #72869B",
"H  c #748B9C",
"J  c #7B8D9C",
"K  c #778994",
"L  c #7B919D",
"P  c #76909F",
"I  c #5B85A7",
"U  c #4689B9",
"Y  c #5992BB",
"T  c #4D8BB7",
"R  c #6789A8",
"E  c #768DA2",
"W  c #6992AC",
"Q  c #7C94A4",
"!  c #7C95AB",
"~  c #7995A7",
"^  c #668DB3",
"/  c #6B96BB",
"(  c #6B9ABD",
")  c #6794B7",
"_  c #779AB8",
"`  c #6C91AE",
"'  c #1A83C3",
"]  c #2C8AC4",
"[  c #2585C3",
"{  c #348BC4",
"}  c #3B8CC4",
"|  c #358BC7",
" . c #3A92C8",
".. c #3596D2",
"X. c #438DC4",
"o. c #4994C8",
"O. c #5294C4",
"+. c #559ACB",
"@. c #5D9DCB",
"#. c #5697C8",
"$. c #489BD3",
"%. c #5799CF",
"&. c #6C9DC4",
"*. c #659CC7",
"=. c #729EC3",
"-. c #609FD2",
";. c #58A4D9",
":. c #5AA1CD",
">. c #64A2CC",
",. c #6CA2CB",
"<. c #6CA7CC",
"1. c #73A2C5",
"2. c #74A5CB",
"3. c #7CAACC",
"4. c #7AA5C8",
"5. c #68A7D4",
"6. c #73AAD4",
"7. c #7BACD3",
"8. c #71A8D4",
"9. c #79B2D9",
"0. c #78B7E6",
"q. c #6EB2E6",
"w. c #56ABE2",
"e. c #86949B",
"r. c #868F96",
"t. c #8395A4",
"y. c #8599A5",
"u. c #8B9BA4",
"i. c #849BAB",
"p. c #8B9DAC",
"a. c #8296AA",
"s. c #929DA6",
"d. c #839DB2",
"f. c #8B9EB2",
"g. c #808FA2",
"h. c #8DA1AC",
"j. c #86A1AF",
"k. c #93A3AC",
"l. c #99A5AA",
"z. c #8CA3B4",
"x. c #8AA6B9",
"c. c #93A6B3",
"v. c #9BAAB4",
"b. c #93A6BB",
"n. c #95ACBC",
"m. c #9BADBB",
"M. c #95A9B6",
"N. c #9BB1BD",
"B. c #A2AEB7",
"V. c #A3B3BD",
"C. c #A9B5B9",
"Z. c #B1B8BA",
"A. c #A2A8AA",
"S. c #83ACCC",
"D. c #8AABC6",
"F. c #93ADC3",
"G. c #9AADC1",
"H. c #96AECA",
"J. c #8BB2CD",
"K. c #96B2C4",
"L. c #9CB2C3",
"P. c #94B3CB",
"I. c #9BB5CA",
"U. c #9CB9CC",
"Y. c #84AED4",
"T. c #8BB4D3",
"R. c #88B6D9",
"E. c #9CBBD3",
"W. c #93BDDB",
"Q. c #97BAD7",
"!. c #A3B5C2",
"~. c #A3B6CA",
"^. c #A4BBCC",
"/. c #ABBDCB",
"(. c #A7BAC5",
"). c #B2BEC7",
"_. c #A3BDD3",
"`. c #ABBED3",
"'. c #88BCE3",
"]. c #95BDE1",
"[. c #9DC1DC",
"{. c #93C0DD",
"}. c #8DC0DF",
"|. c #ACC1CD",
" X c #B3C3CC",
".X c #BAC5CA",
"XX c #ACC2D3",
"oX c #A4C3DB",
"OX c #AAC4DB",
"+X c #AAC7DA",
"@X c #B2C4D3",
"#X c #B5C9D3",
"$X c #BCCBD4",
"%X c #B3C5DA",
"&X c #B4CBDC",
"*X c #BBCCDC",
"=X c #BBC7D2",
"-X c #BDD1DE",
";X c #B9D1DB",
":X c #8AC2EB",
">X c #9BC4E3",
",X c #97C5E8",
"<X c #96CAF3",
"1X c #9AD3F8",
"2X c #ACCCE4",
"3X c #A5C9E6",
"4X c #B4CDE2",
"5X c #BACEE1",
"6X c #ABD1EA",
"7X c #BCD3E4",
"8X c #B3D2EA",
"9X c #BBD5EB",
"0X c #BAD6E8",
"qX c #A9D6FA",
"wX c #B7DAF5",
"eX c #B9E2FC",
"rX c #C3CACC",
"tX c #C4CDD3",
"yX c #C4D3DC",
"uX c #C9D4D8",
"iX c #D4D8DC",
"pX c #C2D5E3",
"aX c #CBDBE4",
"sX c #C5DBEB",
"dX c #CBDCEC",
"fX c #C5D7E7",
"gX c #D3DDE4",
"hX c #C5DCF1",
"jX c #C3CEE0",
"kX c #CCE1EC",
"lX c #C9E0EA",
"zX c #D3E3ED",
"xX c #DBE5EA",
"cX c #CAE4F8",
"vX c #D2E3F2",
"bX c #DAEBF3",
"nX c #D4ECFD",
"mX c #DBEDFD",
"MX c #D6E8F4",
"NX c #DBF3FE",
"BX c #DAF5FD",
"VX c #C4F1FF",
"CX c #E5E9EA",
"ZX c #E4ECF5",
"AX c #E2F4FD",
"SX c #ECFCFF",
"DX c #E9F4FB",
"FX c #F2FCFF",
"GX c #F8FAFC",
"HX c #F2EFEC",
"JX c #E3E4DD",
/* pixels */
"j F v D _.BX>XS./ 1.,.Y @.#.+.o.C ;.0.0.$.q.-.0.5.q.q.;.X.o.;.;.w...V N N B B B i B B B p u u p p u u u u u y y y e e r r r r r ",
"S S j E _.cXQ.4.=./ *.T #.O.Y U o.U C O.U +.T 5.q.-.%.s C  .$. . .V N d t r t t u p p p u u y y u u u y u y y y y y e r r r r r ",
"H c.^.XX_._.D.3X>X7.7.2.9.:.;.Y +.X.O.O.T T T -.-.%.X.m C C C C ] { V N B B N B M i i M M i p u p u u y u u y y y y e e e r r r ",
"8 b S h l E x.W.6XR.].:X:X0.<X0.@.>.8.#.T T U U m s m } C V C V V V ] V V ..V V s s p i p p p y M p p u u M u u y y y y e e e e ",
"5 6 j 6 k d.H.oXP.1.J.}.}.}.1X1X1X:X'.2.9.8.8.*.%.U U X.C X.U { V V V V C ..$...[ M s M i i B i p p p p p M y u y y u y y t y d ",
"1 1 D j._.+XoX2X[.x.}.S.3.3.}.}.qX<X<X<XqX'.1XqX].0.8.%.o.X.$.$. . .V {  .$.$...| [ s s ' ' ' ' M M i i p M M M M p u y p t y t ",
"4 : Z ! 4XnXBXnXlX6X3XJ.{.J.}.3.Y.Y.Y.W.'.1.R.<X1X'.0.8.#.o.+.o.C V V }  . . .{ | | [ [ [ [ N N M a M a M M M M M p i p p u d p ",
"2 c K.n._.0XBXBXBXcX;X{.+X6X6X[.>X].=.S.=.=.=.) 7.*.O.-.>.;.o.C  . .X.$.$.o. .$.X.} } | | ] ] [ [ ' [ ' M ' ' M M M M M s s p s ",
"# 8 8 x._.&XvXnXcXnX9XE._.wX8XD.T.D.S.S.Y.T.R.>X'.'.'.q.%.#.T %.o. .$.:.;.%.o.X.X.X.o.X.$.] { { | V [ ] ] M [ [ M s M M s s s s ",
"S 5 j E H z.XXOXOX+X_.U.E._.U.D.D.J.Q.Q.T.Q.qXVXwXqXqX'.'.8.-.#.:.$.+.o.o.O.%.5.%.o.$.X.o.V {  . .V | | | [ ] s [ | s M | s M s ",
"j.N.H Q H 6 n.L.^.`.XXXXoXE._.[.E.3X3X3X3X>X>X>X'.Y.Y.8.Y.8.-.-.:.:.:.+.Y o.:.5.q.q.q.-.:.C C C C o.X.} | | | | | | s | s | | s ",
"N.N.N.v S H v 7 L.4XhXcXcXnXnXcXVXeX>XJ.T.Q.Y.1.=.4.=.Y.2.-.2.-.:.<.:.:.:.#.O.:.-.-.5.-.q.:.+.+.U o.o.U X.} } X...| | | X.s | X.",
"Q 6 n.Z Z XXm.F G n.9XcXnXBXnXcXeXwX>XW.S.J.R.T.W.,XqXqXqX,X].Y.9.6.>.>.@.@.5.5.'.0.<.#.6.:.T T Y 5.5.Y O.X.X.o.X.X.X.X.X.X.s X.",
"Z 4 P Z 8 L E S a.b.`.4X4X+XoXoX{.{.,X>X{.W.W.W.,X,X,XqXwXqX].'.9.<.,.>.>.<.<.5.5.q.>.:.:X9.5.8.*.9.9.:.#.#.O.%.o.o.X.X.o.X.o.o.",
"8 = S Z H L.F f.`.&X7X7X&X+XoX2XqX,X{.}.}.{.W.W.>X].R.T.Y.Y.Y.Y.R.9.9.R.9.9.<.:.:.>.>.>.:X9.>.( 1.<X:X>.*.-.%.%.%.%.%.O.%.X.%.o.",
"& = H |.Q a.m.d.n.&XhX0X4XwXsX6X6X3X3XqX6X>X,X>X].].3X].].Q.].>X>X,X,X,X<X'.9.6.8.9.<.&.,XR.1.3.S.6X1X3.2.8.*.-.-.%.%.%.%.%.%.%.",
"$ 9 H &Xj.~ n.0X+XsXcXsX7XdX@X5X9X4X2X2X3X2X>X3X3X>X>X3XQ.H._.oX[.P.T.{.R.R.9.7.3.3.S.3.6X{.J.x.XX|.+XW.1.2.9.*.5.5.-.-.*.@.%.5.",
"$ : Z Z I.E D U.lXlX7XpX7X*X(.dXlX0X0X;X6X2X3X3X3X>XOX3X3X%X2X2X+X{.{.{.R.R.W.R.}.3.}.{.0X[.K.N.#X#XXXK.S.4.7.9.2.6.8.2.8.5.@.-.",
"Z 6 2 4 x.x.P H +XsXkXlXdXfX/.*XsX0X-X0X8X0X6X6X6X2X8X2XOX4X2XI.+X3X[.{.>X>X>XW.{.}.{.6X;Xx.M.M.(.$XXXU.W.W.3.Y.Y.R.6.2.9.9.7.9.",
"_ K = 6 P S D ~ ~ ^.7XlXvXaX!.%XfX0X0X0X0X0XwX0X8XwX8X4X%X4X4X~.+X2X2X3X3X>X>X{.{.{.6X6Xx.P j.C..XyX|.F.Q.>XW.R.Y.R.Y.3.S.J.7.9.",
"`.a.; : j.8 : P b F t.-XMX`.g.@XkXlXlXlXlXwX0X0X9X7X9X9X;X0X0X#XN.;X8X+X2X2XoX3X|.[.8X+X~ h.|.;XuX.XV.|.{.[.3XQ.Q.[.[.[.[.P.J.R.",
"2 1 = * 6 Q g Z i.J v i./.!.y.pXaXlXzXaXlXlXlXlXhX9XsXsXlXlXyX Xj.+X0X;X8X6X2X6X+X+X+X;Xj.v. XuXxXA.u.N.n.x.oX6X_.U.U.K.I.P.U.oX",
"h G d.n.4 c P D j p.L.*XdX/.F c.yXlXkXkXkXkXcXhXdXdXlXlXlXlX#Xh.y.#X0X0XwX0X2X0X0X;X;X;Xh.l.C.;XZXZ.l.y.j.j.XXcXcXMXlX$XyXMXnXnX",
"G G 6 G.I.= j.i.j n.&XkXpXp.v m.lXxXbXMXzXzXvXdXdXzXkXyXlXzX XA k.;X0X0XlXlX7X0X0X-X;X;Xl.e.C.xXrXuX.XC.(.N.K.XXvXSXZXlXbXSXbX;X",
"5 5 1 5 5Xg.1 j b jX%XvXXXv v u.|.xXzXaXyXAXMXpXdXvXMXgXuXxXyXK k.(.;X0XlX0XlX0X*XpX-X$Xe.l.C.xXrX.XC.).b.n p.B.m.ZXJXrXCXgX).gX",
"* # b 5 a.5X! ; 3 v b c.N.M.7 J $XAXBXbXaXMXgXjX=XbXgXMXBX#XN. X(.Q N.|.|.lXkXzXMXDXyX$Xs.B.uXCXCXZ.gXs.u.k.b.B.(.iXJXZ.JXiXuX).",
"; % : 4 E b.b.B.J E t.s.!.L.8 S c.bXbX#Xp./.tXB.v.mXmXMXCXC.v K Q M.|.(.|.;X;XpXzXNXbX Xl.e.Z.CXiX.X).A u.p.!.C.s.Z.rXr.Z.rXuXB.",
"k n.S k v h 7 b /.5XpX/.!.c 8 F sX-X!.@X!.@XjX!.m.).yXbXBXlXN.8 K l.N.N.N.|.pXlX XzXlXh.e.r.K CXA.C.Z.e.K !.f.r.s.rXrXA.A.rXrXA.",
"k ! XX~ 5 Q b J b.%X5X*Xn.v 7 t.^.!.n.XXh.M.=X!.V.`.dXpXu.L N.Q ;X^.L j.j.L |.|.aXv.v.C.9 e.$XuXZ.l.l.FXyXg.n n s.iXrXC.Z.rX.Xs.",
"D D ! j.S n./.G.v.~./.*Xt.t.: Z z.U.L.^.f./.fXg.g.(.-XpX;X#Xn.5 S |.Z c M.j.M.yX#XN.h.h.K 0 $XuXA.C.ZXC./.~.7 e.s.rXrXA.rXZ..XK ",
": k 4 H G.%XsX~.G.%X`.!.v v : j D ! F.fXp.J /.p.t.).`.c.j.x.h.Z 2 #XU.H U.!.t.&Xv.h.C.L l.8 #X;Xl..XyXL b r.h l.Z.tXuXZ.Z.l. XA ",
": & & 6 z.%X~.`.k.dXjXp.6 & K i.S Q z.&Xa.Q /.J A g.M.m.y.y.&XlXP ! &XN.j.&X@X#XL v.(.A 9 .XuX$XxX=XxXpX3 n v.C.).rXrX.Xr.e.#Xl.",
"!.G.b g.h b.fX^.i.^.;XM., : P P Z j.n.|.M.|. X|.K J t.pXL j.^.XXP H |.j.j.;X|.|.v.A k.r.C.rXrXxXCXA.K 8 0 C.Z n rXuXrXs.r.uXs.n ",
"7 b jXb.b.%X5X%X%XN.j.Q Z 5 6 P P K.|.|.M.C.#Xv.u.k.m.(.S z.Z 2 8 H L.U.M.N.-X|.A Z v.l.C.xXuXHXuXe.9 l.$XV.L A l.C.tXu.iXCX).v ",
"b f.G.b u.mX`.vXp.m.j.j.P 8 : Z j Q N.N.L (..Xk.0 !.F !.7Xn.D U.Z H h.|.N.Q #XN.v K u.B.iXCXDXuXA n Z.DX;XC.u.A .X.X.Xr..XiX0 e.",
"7 v 3 % G.~.G./.6 H k Q M.{.j.~ j.P N.h.Z #XN.K u.k.Z XXn.S Z F 8 9 P |.N.n.|.n.9 7 l.k.$XgXgXiXl.k.-XaX8 y.M.v h.rXe.e.$Xh.8 q ",
"% h ; 7 `.G E b.^.f.6 ! _ P x.Q |.j.Q Q 8 |.j.Z c.y.L S S XXP j -XV.y.!.L y.M.n.Z v 9 v.zXiXgXB. X-X`.L.5 v 7XM.!.G.q B.k.u.7 = ",
"q 2 % v H 5 : a.G.G j ! D Z x.P D n.M.N.8 H j.A c u.n c x.N.4 : N.|.y. XN.h.c.v 7 8 K iXaXbXl.B.dXsX_.b F.! F.k b.g.r.0 V.p.& 7 ",
"4 % ; h j.j 6 S E H ! H ~ x.U.j 8 x.0X(.Z Z H 8 N.i.j K.D 4 n.H k.(.k.v.V.h.h.8 9 F u.zXMXZX=Xc.G E ! > l H ~ ! n `.g.% 8 H F L ",
"l 1 # c D S 6 1 S a.&Xc 8 D ! D 8 Z ;XZ 8 L 7 1 Z L z.0X! ! MXn.K B.zX|.fXpXpX#Xm.-XSXzXMXbXdXyXd.b g l - , D l b.g.G.G.p.J z.Q ",
"* * : : ~ ~ 5 j H.f.hXf.f.D j.H 5 x.+X9 8 Z 8 Z S ! n.XXE ! G v n A M.m.@XmX).v J AX#X@X XB.aXb.v D.E : > g l E b.H.b.%X%XjXvX~.",
"% o % = Z 5 Z |.fXg.a.hXI.j S ~ P #X|.8 8 D P D E ^.0XD 6 Q S z.v v K F F n.~.m.m.G.n.$Xk.K v.n b D ! ~ l 5 k W b.%XH.f.g.b.H.b ",
"P 5 o 5 j._ & ~ b 7 v `.G.5 l 4 Z (.#X|.+X;XeXlXhXAXsXh 6 S P 0 @Xp.c.$X).8 1 f.p.z.V.(.!.).C.s.p.b : # : Z k Z f.b f.%XG.F.H.`.",
"4.N.8 o Z ;Xj.~ * h J h v c a.c S j.|.0XlX;XlXeXnXcX9XH.z.z.XXb F !.p.v %X7Xb.n.7 b.tX!.).uXpXDXdXvXU.Z n.VXcXBXhXf.%XZXMX`.I.4X",
"D x.&X4 # 8 N.L.v h b.b v G.G.!.(.m.XX#XN.K.[.;X4XOXDXDXhXvXAXvX8 7 ; 1 %XpX/.G.%X(.!.).gXZXZXxXGXfXvXdXbXSXBXfX`.jXdXu.hX`.F c ",
"Z H +X0XZ & 1 L.f.3 `.dXfXcXsX&XpX#XpX*X;X;X+X+X`.%X`.5X`.5XfXmXFXfX5X&X&XXXmXnXSXSXMXgXDXZXZXGXgXiXDXFXAXDXyXzX).b.s.1 a.b h h ",
"6 l b.F.5XE 7 J n * 7 b.pX`.jX`.pXyXfXpX7XK.|.XX%XG.v H.`.`.vXdXfX5XmXnX4Xd.5XpXpXkXfXuXDXGXDXGXxXiXCXaXbXlXe.K B.3 3 9 Z Z K.sX",
"4 k Q L.G.G.2 * h b . b 4X`.%XhXsX*X~.^.^.8 x.8Xb ; b 5X/.G.`.5XOX2XE.d.F.G d.F.G v /.dXfXGXGXDXA.r.rXaX$X$Xv.V.=X=XMXDXDXAXMXbX",
", = _ K.F.b.+ X O 1 2 ~._.2XH.H.9Xx.I.XX4Xx.b.d.E x.&XfXXX/.`._.H.Q.J._._ x b g @ > H._.~.%XsXdXg.b.jXMXtX$XDXFXDXGXHXZXGXGXHXHX",
"5 = j P a.a.b b 5 . ! 3XD.3X_ > 5 _ oXF.oX9X0X4X9X9XhX4X~._.&X&XhXoXx._ w @ > , g > l b d.F.~.4X`.`.5XZXkXuXxXCXZXgXZXCXiXHXHXHX",
"6 = = : 5 Q `.4X`.2 b oXJ.D W R : k D.oXOX2XU.wX7X_._.OXK.x.+XnXmX%X^.~.Q b d.3XOXH.F.D.I._.oX%X~.b.a.G. X|.C.k.).v.jXvXfXgXgXGX",
"D $ o & j %XH.G b.OXb Q._ 5 I x.z , W Q.D.Q.E.OX2XoX2XOXF.d.4XSXDX=XaXSXFXAX5XOX~.3X2XE.E.E._.OX5XjX!.!.kXAXsXm.b ! E 4XDXAXvXvX",
"& O O 9 : Q g 2 _ H.b W - - - D g @ , R _ Q.8XwX3X8XE._ ! Q.VXSXDXZXFXZX$X/.!.5XmXhX4X3XE.P.D.F.jXZXgXjXDXFXAX0X2 a.H.6XhXwXhXcX",
"= $ . , = ; 6 ! `.E h & . O @ , # - w x _ W.6X>X3XE.D.! E.VXBXNXDXGXGXFXZXdX/.^.sX2XH.H.P.P.U.H.~.dXvXvXmXbXnXnXH.z m ^ / =.) ) ",
"o O O $ o   ; K.H.! g + . + & @ . / T./ z S.R.x _ / R 4.>X3XW._.*XfXgXfX&X/.G.^.5X2XU.OXD.K.F.! f.).).).#X#X;X&XnX_ m b z z z W ",
"    = & 4 ; & z d.g l - .   + + @ ^ S.Y.- w m < w I 1.3.T.3.4.Q.F.G.L.~.XX^.E._.cXI.f.wX2XU.D.K.b./.G.l.V. X/.y.H.H.b g E E E k ",
"l h b g f.H.> # z h m < . + X @ w < m m I - > I ) &.4.3.3.3.3.4.S.D.D.J.Q.E.3XQ.+X[.+X6X8X2X8XcXvXMXkX;X(.A.l.v.B.b.G.jXMXmXjX).",
"H.h E g _ E z @ @ - w + X . @ x I x 4.I ( T I ( =.2.3.7.7.2.7.3.2.2.2.7.Y.Y.T.J.Q.{.[.2X4X2X8XcXNXBXSXBXbXlXlXaXgXMXZXGXGXZXiXrX",
"z h b._ _ z @ X X . + @ - z ^ / =.( Y./ &.3.2.2.4.2.2.2.1.2.2.8.8.8.8.6.9.R.Y.Y.4.x.D.D.J.D.D.P.3X4XlXBXSXSXSXDXDXGXFXDXCXJXJXJX",
"+ - z b m z < @ # < w m ^ / =./ 4.( 1.&.,.2.&.2.2.2.2.2.&.&.,.,.5.5.5.5.6.6.2.1.3.3.3.S.4.4.4._ _ _ x.[.0XkXBXBXDXZXZXxXCXCXHXCX",
"g - z b b m =.z x ^ =.2.=.m =.=.=./ ( 3.2.2.&.7.2.2.2.&.,.,.&.,.>.>.5.<.8.2.2.1.4.3.7.3.3.3.3.1.=.=.^ W _ K.+XlXnXNXBXSXGXFXZXCX",
"b ^ D.Y.=.*.m m =./ ^ ^ =.=.Y.m / =.=.1.=.2.=.6.2.2.&.5.,.&.&.*.>.>.>.<.,.2.1.<.1.1.1.1.1.,.&.&.&.&.( ) W W _ 4.P.XX4XlXdXdXxXbX",
"^ Y.^ m m m w ^ / / *./ / ^ ^ &./ =.=.&.=.=.6.=.2.=.&.&.*.,.*.( ) Y ) ( ( ) ( ( 1.1.1.<.,.>.*.-.O.) ( ( Y W I I I R ) _ ! _ |.+X",
"_ b ^ m m m ^ *.*.^ / / *.=.^ =.7.=.=.=.6.=.7.9.7.6.,.,.,.,.,.,.<.2.1.1.1.=.=.=.<.( &.,.,.>.>.>.*.@.Y Y W Y W ) ) ^ I I D I D D "
};
