/* XPM */
static char *a1709327433[] = {
/* columns rows colors chars-per-pixel */
"64 64 256 2 ",
"   c #050606",
".  c #170704",
"X  c #081807",
"o  c #171608",
"O  c #030816",
"+  c #07171A",
"@  c #1A1618",
"#  c #250903",
"$  c #3B0905",
"%  c #281605",
"&  c #371705",
"*  c #311713",
"=  c #192707",
"-  c #023C02",
";  c #063705",
":  c #173604",
">  c #0E2E13",
",  c #263903",
"<  c #302C0E",
"1  c #041928",
"2  c #0A122B",
"3  c #062629",
"4  c #042B38",
"5  c #043539",
"6  c #122E30",
"7  c #393728",
"8  c #31302F",
"9  c #3E1125",
"0  c #461705",
"q  c #4F120B",
"w  c #681903",
"e  c #761A04",
"r  c #73120E",
"t  c #4E2D0D",
"y  c #772606",
"u  c #722C0C",
"i  c #4E362E",
"p  c #67382E",
"a  c #024303",
"s  c #074808",
"d  c #084916",
"f  c #065817",
"g  c #125011",
"h  c #2A5917",
"j  c #2E4D0F",
"k  c #0E6A18",
"l  c #2C7317",
"z  c #104E2E",
"x  c #31522F",
"c  c #066726",
"v  c #11712C",
"b  c #2F712C",
"n  c #585B06",
"m  c #504E0F",
"M  c #6E590D",
"N  c #596704",
"B  c #536E09",
"V  c #686904",
"C  c #736B04",
"Z  c #687405",
"A  c #747507",
"S  c #6D6F15",
"D  c #525130",
"F  c #70522F",
"G  c #516D2F",
"H  c #6F6F2F",
"J  c #073745",
"K  c #0A2C4C",
"L  c #283B48",
"P  c #0A346B",
"I  c #553D44",
"U  c #074945",
"Y  c #035549",
"T  c #0D4F54",
"R  c #2B4E4F",
"E  c #0E6853",
"W  c #2D734B",
"Q  c #0D5172",
"!  c #2D596B",
"~  c #046A77",
"^  c #05787A",
"/  c #0B6C6C",
"(  c #2F6E72",
")  c #52524B",
"_  c #66594B",
"`  c #556A4C",
"'  c #716A51",
"]  c #486D6E",
"[  c #706A64",
"{  c #8B1B06",
"}  c #962805",
"|  c #8A3805",
" . c #943B03",
".. c #9C3C03",
"X. c #963907",
"o. c #8F3110",
"O. c #A63A05",
"+. c #A5310D",
"@. c #843D27",
"#. c #984308",
"$. c #994415",
"%. c #8A4B12",
"&. c #A64710",
"*. c #876D15",
"=. c #8F5331",
"-. c #88722C",
";. c #AD5B37",
":. c #8F4F49",
">. c #85776D",
",. c #A46257",
"<. c #D56B59",
"1. c #C65833",
"2. c #188B18",
"3. c #2C861B",
"4. c #388A28",
"5. c #38962B",
"6. c #3B8932",
"7. c #2E8E2C",
"8. c #2B9633",
"9. c #478A3A",
"0. c #469736",
"q. c #48902E",
"w. c #768B39",
"e. c #48A338",
"r. c #748115",
"t. c #33924F",
"y. c #05887A",
"u. c #309269",
"i. c #2AA564",
"p. c #35A968",
"a. c #34B270",
"s. c #279D57",
"d. c #4D954F",
"f. c #6C9452",
"g. c #49A54F",
"h. c #51906D",
"j. c #768A70",
"k. c #4DAC6D",
"l. c #6AA769",
"z. c #76A14F",
"x. c #41C07D",
"c. c #949319",
"v. c #B5AE15",
"b. c #AA9B2C",
"n. c #B3AF2B",
"m. c #8F9027",
"M. c #D79817",
"N. c #CE930D",
"B. c #DAB509",
"V. c #D9A917",
"C. c #D9B718",
"Z. c #CFAB0C",
"A. c #E3B718",
"S. c #E6AE10",
"D. c #D2B127",
"F. c #E6B82B",
"G. c #DA941D",
"H. c #D9C907",
"J. c #DAD507",
"K. c #D9C817",
"L. c #DBD817",
"P. c #CCCD07",
"I. c #E7D709",
"U. c #E6C718",
"Y. c #E7D817",
"T. c #EFD10D",
"R. c #E8E20D",
"E. c #D9CA2D",
"W. c #E8D724",
"Q. c #EBCE29",
"!. c #E8E227",
"~. c #888E51",
"^. c #918C72",
"/. c #9D9D75",
"(. c #055B88",
"). c #0C518E",
"_. c #05658C",
"`. c #0A7A85",
"'. c #066996",
"]. c #08749A",
"[. c #177393",
"{. c #2B788D",
"}. c #087AA5",
"|. c #126FA8",
" X c #316FA4",
".X c #537A89",
"XX c #0C8C8B",
"oX c #078986",
"OX c #148989",
"+X c #0B928D",
"@X c #059588",
"#X c #0B8A93",
"$X c #0D9492",
"%X c #099B93",
"&X c #149795",
"*X c #158F8F",
"=X c #298897",
"-X c #36869B",
";X c #299092",
":X c #1AA69C",
">X c #0DA79B",
",X c #1894A6",
"<X c #358CA5",
"1X c #2F91AA",
"2X c #1AA8A5",
"3X c #16ACAC",
"4X c #2AAEA9",
"5X c #34AB8F",
"6X c #468795",
"7X c #4C95AF",
"8X c #6997AE",
"9X c #4FA4B0",
"0X c #76ABB6",
"qX c #678F8F",
"wX c #33C2B4",
"eX c #339FC5",
"rX c #54B0CB",
"tX c #6DB6CD",
"yX c #649FC1",
"uX c #33C1C4",
"iX c #72C6D4",
"pX c #72CFED",
"aX c #58C7D8",
"sX c #97958A",
"dX c #B2AB92",
"fX c #B4B3AA",
"gX c #A8998A",
"hX c #C7B89C",
"jX c #CCB8A9",
"kX c #BEC7A3",
"lX c #F1EC9B",
"zX c #D2CAB3",
"xX c #E6D3B8",
"cX c #F7EBA7",
"vX c #F8F6A8",
"bX c #FAF7B8",
"nX c #EEEBB2",
"mX c #D3CE9C",
"MX c #B2BCCA",
"NX c #88CFE9",
"BX c #87D6E6",
"VX c #DBDAC4",
"CX c #D8CCC6",
"ZX c #E6DAC5",
"AX c #F3D8CF",
"SX c #DBE4CC",
"DX c #E8E7CB",
"FX c #F6E9C7",
"GX c #FBF7C8",
"HX c #E8E8D5",
"JX c #FAF9D6",
"KX c #EEF1D4",
"LX c #FCFCE7",
"PX c #EEEFE3",
"IX c #D6E7E1",
"UX c #C0BCCA",
/* pixels */
"T 3 5 T / / / ~ Q 5 T / ^ ^ ^ y.y.`.T T Q ! 4 3 6 6 U T ~ ^ *XOX@XXXOXy.@XOXT ~ XX*X+X@X%X+XOXOXQ ~ *X&X$XoX2X%X$X+X`.Q OXy.*X:X",
"> + 2 6 3 5 z E ^ z U / ^ ~ ^ ^ OX/ U   . $ w e w w w q $ 1 Y y.y.oXXX$X%X`.T / @X@Xy.@Xy.%X+X@X~ ^ >X@X%X2X&X:X%X+X`.~ XXoX&X4X",
"+ R ( ( ( / J 4 4 J U / y.`.OX^ U + 0 r } } } } X.} +.+.+.r & + ( @X>X+X#XOXQ / >X%X+X+X*Xy.^ ^ J / ;X&X4X:X%X%X+XXX^ / $Xy.*X:X",
"! [.=X=X1X1X6X6XR 4 6 Q y.y.E 8 q r { } { { { { { } } } +.+.o.{ 6 E @X@XoXOXT U E z z 6 x 7 7 i 8 x ) W z y.wX:X+XoX^ ~ +Xy.OX&X",
"[.[.{. X X6X<X=X1X6X! J E E @ q { o.e w { o.} +.} +.+.} } } o.o.q z E ( ( R ) [ gXdXjXxXnXFXFXnXKXFXGXxXkXj.R u.*X*X~ / +Xy.*X:X",
"{.OX{.-X{.<X<X=X7X<X1X6XR 1 # u r u e { o.{ { } } } { y e q 0 0 p ' sXfXVXDXPXPXGXJXGXGXGXbXGXbXbXbXbXGXJXLXCXD ^ OX~ ^ &X%X&X&X",
"( {.{.OX<X<X<X;X7X<X<X7XyX7XL # r { { { { } } { r 0 # % 7 _ gXCXFXLXJXGXGXbXbXnXcXcXvXvXlXlXlXlXcXvXvXbXnXJXJX` / oX~ ^ %X+X*X+X",
"K {.-X{.=X<X<X<X;X1X1XeX1X4XrX X6 * r { w $ % * i _ sXjXDXJXLXFXFXnXcXcXvXlXvXvXbXvXvXvXvXvXvXvXvXvXvXvXGXLXDXx ^ &X^ ^ oX@X*X&X",
"1 6 ( ;X=X{.=X<X1X=X X7X1XrXeXeX6XT O @ D [ dXCXDXFXJXxXnXlXmXlXlXlXvXlXcXvXlXnXlXGXcXlXvXlXnXcXcXbXbXbXbXdX) E @XOX^ ^ XXoXXX#X",
"U O 1 ! <X=X,X=X<X<X<X1X<X( R R R ` ^.jXZXKXGXSXbXGXcXcXcXvXvXvXvXcXvXcXcXcXbXvXvXvXvXvXvXvXvXvXvXlXhX~.7 U `.%X+Xy.^ ^ OXoXoXXX",
"5 6 6 4 K {.6X{.{.( ( T ! .XsXdXzXAXAXjXxXjXdXdXgXgX^.^.^.~.^.>.^.^.^./.>.~.D D D I ` ' _ _ m i < & + T [.;X>XoX*XoX~ ^ XXoX@XXX",
"U 4 5 T U 2 6 3 +     8 [ ) [ ` ) @ 8 . @ ) sXsXsXfXfXfXdXfXUXjXUXCXUXfXMXfX) O F *.M C V M S w.c.n.x *X>X:X&X&XXXoX^ y.XXoX+X$X",
"U 4 K E E z O O i >.dXdX/.sX>.>._ 9 ^.>.I :.gXJXSXDXKXHXLXLXLXPXLXLXPXLXLXLXAX@ r.Y.N.S.Y.Y.H.B.H.Z.b.g 5X3X4X3XoX`.^ `.oXoX%X%X",
"z 4 4 / E U K Q Q 6 R _ gXjX_ p ,.:.xXgX,.,.i fXxXFXZXHXUXfXfXfXsXdXfXfXfXfXUXL < E.B.N.V.P.B.N.M.V.A.*.U eX2X>XoX^ ^ oXoXoX$X$X",
"z 4 4 T E K 4 (.'._.Q J K 6 6 I I [ [ _ ) j.zXIXFXfX6 K P P K K P P P P P ).P P O b.H.Z.N.B.I.A.N.K.Z.C.i T 4X:X@XoX^ oXoXoX$X$X",
"U J K T E J 2 ! '.'.|.'.|.Q K K 8 ) gXCXAXLXAXAXAXzX2 ).).|.|.|.|.|.|.|.eX|.eX|.O H P.J.G.N.T.H.Z.Z.F.M.D.z 4X3XoX^ ^ oXoXoX$X$X",
"U J J Q T 3 + Q '.'.'._.'.}.}.|.Q J 2 i >.fXCXHXHXxX@  XeXaXtXtXiXiXBXBXNXBXpXpXJ i L.P.S.M.I.P.C.N.U.Z.D.-.*X2XoXoX~ #XoXoXoX#X",
"z 4 K T T 3 1 '.(.(._.'.'.'.}.[.#X[./ J O O i fXHXxX) Q '.rXNXtXtX6X( R R ! 9XNX]   v.J.T.N.S.H.K.Z.V.Z.M.b.u.3X@X`.~ oXoXoXXX%X",
"U 4 5 Y T   1 )._.'.'.'.'.].].}.}.|.,X|.{.Q O I VXJX_ ! MX0Xh.! D D _ >._ _ X L sX4 -.J.W.S.S.I.H.H.Z.C.V.n.( 3X%X`.~ #X@XoXXX&X",
"U K 4 Y 5   + Q (._.'.'.'.].].}.|.|.}.}.,X=X2 L xXFXdXD IXMXD   ' GXGX^.& mXGXD 6 2 m I.J.H.V.J.P.U.V.K.K.B.W 3X%X`.~ #X#XoXXX&X",
"z 4 4 Y 3 . @ K (.(.'._.'.'.].].}.|.,X}.}.1X1 8 VXDXzXD zXHXxXfX@ < /.kXdXmXmX^.L L i Y.P.I.S.P.P.I.S.K.W.Z.d.,X%XoX~ OXoXoXoX$X",
"U 4 4 Y + 0 $ 1 P (._.'.'.'.].].].'.}.}.|.[.1 7 CXzXKX_ hXKXVXPXPX' = ) j.) R 6XBX( @ K.J.R.V.S.H.L.B.U.L.v.W 3X%X`.~ #X@XoXoX#X",
"Y 4 5 J + w u   P Q (.'.'.|.].'.}.'.].}.}.|.1 x zXPXnX>.>.KXSXDXnXJXfX) L tXBXaXpX( X n.T.I.B.V.I.W.C.S.U.v.u.4X%XoX`.#XoXoXy.oX",
"z 4 J 5   u %.. 2 P (._.'.'.].'.'.|.}.}.}.'.2 I zXxXDXgX>.HXSXKXPXHXPXFX/.6 6XBXpXqXX n.Y.Y.K.M.T.L.C.B.W.c.( 3X%X#X`.#X$XoX`.oX",
"U 5 J 3 . | | u   K P '._.(.|.'.'.`.|.#X[.).+ _ CXVXDXhX' xXZXHXPXHXKXKXLXzXx R iX8XO b.R.!.B.G.T.H.F.C.B.w.4X2X2X#X#X,X$XoXy.oX",
"Y 5 5 1 . o. .%.t O P Q (.]._.'.[._.|.}.).).O ) jXHXZXZXG kXHXHXSXKXHXPXSXPXLXD R 8X  b.Y.Y.S.V.I.H.F.C.v.G 4X4X2X$X*X,X$XXXoXoX",
"z 5 5 1 # %.#.$.%.0 O P (.Q ].|.].'.|.'.).).2 [ zXzXVXxX' dXDXVXJXPXPXHXPXHXDXKX_ @   c.!.T.S.N.Y.I.V.D.c.W uX4X2X$X#X2X$X+X@X+X",
"U 5 4 + # X.O.X.#.%.& . P ).).).'._.|.'.).Q 1 [ zXVXVXDX' [ KXSXVXPXIXPXPXJXGX/.x @ X n.Q.I.N.S.Y.H.N.F.S ( uX:X:X#X#X,X&X+X$X#X",
"U 5 4 + & X...X.$.| $.u O K Q Q _.(.|.|.).P O [ zXfXzXVXsX' VXSXKXSXPXLXHXgX7 + 6X) o W.Y.I.M.V.Y.B.N.Q.m ;XwX:X2X&X#X2X&X$X&X$X",
"z 3 3 + & o.O.#.#.&.X.o.p # 2 K P ).).'.).).O _ dXzXdX_ ' 7 zXSXDXVXfX` 8 T 7XtXBX6 m !.I.J.G.D.L.N.C.C.m =XwX2X2X&X#X1X&X%X$X$X",
"U 3 5   & X...#.&...| | &.$.w & O 6 P P P ).O i _ _ < ) [ < ^.sX) 8 6 ! tXiXNXpXtX+ r.I.T.U.G.B.H.M.D.C.m OXuX3X2X&X#X2X&X$X$X*X",
"U 3 3 + & $.O.#.O. .#.#.O.O.&.=.p & 2 4 P P 2 [ ^.@ 8 ^.7 ) o @ ( 9XpXpXpXpXtXpX8XX n.I.T.S.G.Y.B.G.n.E., ;X9X3X2X&X#X2X&X$X%X*X",
"T 5 4 O 0 X.O.#... .| #. .| X.&.&.&.t . =.p . i < i p ,.<.<.,.o 8XpXrXtXpXpXaXpXR < W.I.U.G.S.J.v.M.P.E.i W 5X4X9X5X5X4X<X2X&X&X",
"z > 1 O 0 X.X.X...|  .#.X.|  .X.O.&.+.@.9 ,.;.,.,.<.<.<./.=.,.D 6 rXpXiXtXaXpXiX+ -.Y.Y.S.M.A.K.M.S.H.H.*.t -.=.H H H H m.H H H ",
"= = @ o 0 $...X.X.X. .X. .|  .X.+.o...&.q p <.<.1.<.;.@.F gXxXAX7 R pXyXiXiXNX! = Q.I.Q.G.S.U.V.G.U.K.P.b.o G B S H H H G H G G ",
"= , > . 0 | X...X. ...X. . .X.X.u %.%...%.* p 1.<.;.m /.xXVXSXAXZX@ .XNXtXtXtX1 *.R.S.M.S.U.U.M.C.I.A.C.E.7 E u.t.W t.W t.` t.b ",
"; a >   0 | ....}  ... . . . .X. .#.$.#.&.=.. ;.=.t zXxXxXCXxXZXGXdX3 8XtXiX.X= W.Y.V.G.U.Y.V.V.I.R.F.C.W.-.z d.t.s.s.t.t.t.t.7.",
"d f 3   t #.....|  .#.#. .| X.X.O.} &.O.&.&.q i 9 >.zXjXZXxXxXxXdXj.( 8XpX9XX b.T.C.M.S.I.U.V.D.I.J.F.C.L.v.> s.i.i.i.a.i.p.i.s.",
"f f ;   u | ....| ..#...| ..X.X.| &.&.$.$.#.$.    /.xXjXzXDXzXVX~.) 0XtXiX6 M !.T.M.V.T.R.A.S.U.J.Y.U.G.U.D.< t.i.i.i.i.p.p.s.t.",
"f f > . y #...}  ...#. . .X.&.X...$.#.#.&.X.%.w   >.mXkXzXjXxXxXmX6 7XpX( = D.U.B.G.F.R.R.A.S.I.L.Y.H.D.U.E.7 7.p.p.i.s.i.i.s.s.",
"g d X # | #.#.#.|  .$.X.%.| $.X.X.$.#.#.&.&.$.@.  7 hXjXkXzXjXjX, ] NXqX+ m.Y.B.G.Z.H.Y.W.S.Y.R.I.T.U.V.E.E.m H z.f.d.9.d.e.g.0.",
", < o & o.$.O...|  .O.O.&.&.&...$.&.X.X.&.#.#.%.  X _ zXmXdXDXF J yX8X+ m E.P.H.G.M.L.I.W.S.F.Q.W.W.F.D.F.U.n D w.w.w.w.~.~.~.w.",
"j , # q o.+.O.} | X.X.#. . .$.$. .#.&.O.+.&.O.&.q     _ hXmXmX' R 0XL < D.C.I.v.G.D.L.L.W.A.U.!.L.W.E.D.Q.Q.H W t.s.t.h.k.g.l.` ",
"c f   t $. .#.| O.O.O.#.#.#.X.+.#.#.....%.| u o.*   @ . & ^.gX/.8 R X v.P.P.B.K.N.B.T.I.W.A.U.Y.R.T.F.C.T.W.S t.a.a.a.a.i.i.s.s.",
"k g   w $.X.| | u u | y u w t 0 * & $ 9 * # . @ . X . . .   . $ .   < < n -.c.v.D.K.L.L.L.L.L.L.Y.Q.F.E.!.Q.B i.g.p.p.k.a.p.g.s.",
"z f 3 @ @ % # . % o = o   . o o < * .   o @ # # * % # t @   i p # t t t # < & t m S c.D.!.!.!.L.T.T.D.E.W.n.b u.u.t.i.p.p.p.p.s.",
"j j j : , : : = % = = : , t F F %.=.=.q . . * t & & q #   p ,.p * < m t m m m m t < < D F m.v.P.!.!.Y.T.!.w.` l.k.k.l.k.k.k.l.g.",
"j g < , j , g : g ; : < m F C M B C =.;.=.9 . . 0 q t # # =.,.q % t t t m t t 0 * > d z E W x x H m.n.Q.E.S f.z.z.z.l.l.l.l.l.d.",
"f g g d s s f s d a j %.*.n B S A A Z C %.;.=.q   # & % $ ,.p o < < < & % = 3 x v W W t.s.W W b x 6 : D j h d.k.k.g.k.k.h.k.k.d.",
"f k c f z f f s f D %.M B B S V A A C C S C M =.F $ . X . :.q X . o : d z x v v b z g f f k l 3.8.6.9.d.d.x > ] x.k.k.k.a.k.k.t.",
"v v c c c f f x M H S N N V C Z V V V V N N A *.-.%.m = o 9 . O X = d z z f ; - f v l 7.6.6.5.e.5.5.e.e.g.d.b X x k.a.a.k.k.k.u.",
"2.c c f f g h F =.N B N C N N C A A r.A C A A B V *.M m <   X > > : : > X X h 6.v 7.8.8.3.3.5.e.e.5.e.8.5.8.0.6.7 z a.a.k.k.k.p.",
"v x h j j m -.&.N V N N Z Z V V V Z Z A *.C M N M =.0 o ; - s s g f f h o # = c l 2.l 2.3.4.0.e.e.e.5.5.5.5.2.g.t.h g u.5Xk.p.i.",
"D j h j < =.;.M N N Z Z V *.C B A C C A Z V M F p . > > s a a a s k k c + q 0 = l v 2.2.2.5.0.5.5.e.e.0.4.5.d.7.7.9.z x h.h.k.d.",
"b k k c x H -.B Z Z Z A A V C A V n S V B N m t   ; a a - d > z s s s k > 0 t & s h 2.2.2.8.g.g.5.e.5.5.0.5.g.0.l 8.t.x 7 j.f.f.",
"2.E 2.v W ' =.N B Z A A V A A A V B V V Z N =   a f a s a a s s f s g f > # y w & , l 2.l 4.3.b l 3.0.5.5.5.3.0.0.q.7.e.b x f.l.",
"8.v 2.v b :.*.N V A Z r.B Z Z A n Z N N S = X s s s a a a - - - a a g f s . q w y q j 3.7.l l x x h b G 6.b b x h 6.6.5.g.b z h.",
"W b c c g _ -.l B Z Z Z N V A V V Z V V m X ; s s a a a a a - - a a s f g % w y w u 0 , 3.6.9.b t.b h h b d.G x b 6.5.6.q.9.b h ",
"h h h h j F -.S B B Z A n V V V C A A V , X ; s a a a a - - - - a a a s s # q w e y w 0 j 4.6.b g h b b h b b b b h b 5.4.0.d.l ",
"x g g h g h H -.r.B Z A V n V A C C C V , X s a a a - - - - - - - a a s : # q w e e y e t j 2.l l l b d.9.9.6.0.9.b 5.6.q.q.l q.",
"v v c c c f h H A A Z Z Z N Z C C V V n < X a s a a - - - - ; ; - - - a d # q q w e e e y t j 3.b 3.l q.q.q.q.q.l q.3.l 4.0.0.q.",
"v 2.v c v c f h S S Z N V Z A V N V n n < O ; s - - - - - - - ; ; - - - ; . q q q q r w y y u h l 3.7.4.q.q.w.4.3.3.q.q.3.q.q.l ",
"8.v v c v c v c h l B N N N S n n n n m <   X ; - - - - - ; ; ; ; - ; ; ; . q $ q q w w w w y & h l l 2.4.q.e.5.q.q.0.e.q.q.4.3.",
"E v v c v k c c z g m n V m n n j m j m , . + X - - - - ; ; ; ; ; ; ; - ;   q $ q q q w { t t e j h l 3.3.l q.q.0.q.q.q.q.q.l l "
};
