/* XPM */
static char *b1709327434[] = {
/* columns rows colors chars-per-pixel */
"64 64 256 2 ",
"   c #161710",
".  c #302813",
"X  c #33332E",
"o  c #1C1B19",
"O  c #503916",
"+  c #493928",
"@  c #4E3B2A",
"#  c #6B132B",
"$  c #6B471A",
"%  c #5A4727",
"&  c #4B4838",
"*  c #584837",
"=  c #4F4E33",
"-  c #644A35",
";  c #68553B",
":  c #775738",
">  c #72502D",
",  c #776536",
"<  c #4D4609",
"1  c #2B3355",
"2  c #55344E",
"3  c #3C4344",
"4  c #324B75",
"5  c #464A46",
"6  c #575446",
"7  c #4B5356",
"8  c #575A56",
"9  c #4F4D4B",
"0  c #665746",
"q  c #745C48",
"w  c #685D58",
"e  c #5C6455",
"r  c #786649",
"t  c #696659",
"y  c #786857",
"u  c #6E7052",
"i  c #5C6567",
"p  c #686A66",
"a  c #746A67",
"s  c #77756A",
"d  c #676B74",
"f  c #6C7578",
"g  c #787A77",
"h  c #6D726B",
"j  c #695770",
"k  c #B11317",
"l  c #8F0D2A",
"z  c #AE162D",
"x  c #9B1123",
"c  c #CB1618",
"v  c #F43033",
"b  c #D21E29",
"n  c #AE7012",
"m  c #865A37",
"M  c #955D37",
"N  c #8A5528",
"B  c #8D683A",
"V  c #A56638",
"C  c #B2722F",
"Z  c #9A6020",
"A  c #C8720B",
"S  c #CE772D",
"D  c #FF403C",
"F  c #8E3051",
"G  c #A02A4B",
"H  c #D02F4A",
"J  c #F52F46",
"K  c #886547",
"L  c #876A54",
"P  c #887459",
"I  c #94724F",
"U  c #A87449",
"Y  c #AA5476",
"T  c #877869",
"R  c #957A67",
"E  c #857B74",
"W  c #8A6B6B",
"Q  c #A6796F",
"!  c #974E65",
"~  c #DF554D",
"^  c #7B8275",
"/  c #B98227",
"(  c #C8883A",
")  c #E4AC29",
"_  c #FAEF32",
"`  c #9A865A",
"'  c #AA855B",
"]  c #B58C56",
"[  c #97846B",
"{  c #888479",
"}  c #978777",
"|  c #8F8A72",
" . c #A88668",
".. c #B68B66",
"X. c #A78779",
"o. c #B89677",
"O. c #AF9275",
"+. c #B8A67C",
"@. c #CF904B",
"#. c #ECAE50",
"$. c #C89977",
"%. c #CD986D",
"&. c #D1A777",
"*. c #EFB073",
"=. c #E19A59",
"-. c #F6D459",
";. c #FCD070",
":. c #FEF072",
">. c #F4E559",
",. c #355889",
"<. c #3C6490",
"1. c #3D7BB8",
"2. c #49568F",
"3. c #466798",
"4. c #506B92",
"5. c #727094",
"6. c #5868A7",
"7. c #4C72A8",
"8. c #7879A6",
"9. c #657AB8",
"0. c #6972A8",
"q. c #6C5C8E",
"w. c #877D9A",
"e. c #8F7291",
"r. c #9A6890",
"t. c #7A8486",
"y. c #7A879A",
"u. c #4B86B6",
"i. c #7287B3",
"p. c #3889C6",
"a. c #38A6CC",
"s. c #5192C9",
"d. c #6C93C6",
"f. c #54A8CF",
"g. c #70AAD4",
"h. c #888886",
"j. c #968889",
"k. c #99968A",
"l. c #998596",
"z. c #899598",
"x. c #979899",
"c. c #898D91",
"v. c #A68687",
"b. c #A69687",
"n. c #B89689",
"m. c #A59998",
"M. c #B69897",
"N. c #AB8C8F",
"B. c #A9A499",
"V. c #B7A796",
"C. c #B4A78B",
"Z. c #8788A9",
"A. c #978AA5",
"S. c #9799A7",
"D. c #858CB6",
"F. c #9998B6",
"G. c #8C94B6",
"H. c #A897A8",
"J. c #A49BB6",
"K. c #B296AC",
"L. c #98A5A8",
"P. c #99ABB4",
"I. c #A8AAA9",
"U. c #B9A7A9",
"Y. c #B9B4A9",
"T. c #A7A5B9",
"R. c #B8A7B6",
"E. c #B7B7B7",
"W. c #A8B4B7",
"Q. c #9BA396",
"!. c #C69C90",
"~. c #D6AB86",
"^. c #C7A698",
"/. c #D7AA97",
"(. c #D9B795",
"). c #CEB28B",
"_. c #E8B897",
"`. c #EEB68D",
"'. c #C6A9A8",
"]. c #C8B4A8",
"[. c #D8B7A9",
"{. c #C4ACB4",
"}. c #C9B5B9",
"|. c #D6BBB7",
" X c #D2ADA5",
".X c #E7BDA7",
"XX c #CD9BB6",
"oX c #DBC893",
"OX c #FBC699",
"+X c #FDD898",
"@X c #F8CE8B",
"#X c #FEF698",
"$X c #FEEC8E",
"%X c #D9C8A9",
"&X c #D9C7BA",
"*X c #CFC9B2",
"=X c #E8C6A9",
"-X c #F6C9A7",
";X c #FAD6A9",
":X c #E7C8B9",
">X c #F9D9B7",
",X c #EED3B5",
"<X c #FBE7A9",
"1X c #FEF6A8",
"2X c #FEECBC",
"3X c #FEE6B9",
"4X c #FFF8B8",
"5X c #8C9AC5",
"6X c #88B6D9",
"7X c #9AB9D6",
"8X c #91ADD0",
"9X c #A9A8C4",
"0X c #B9B7C7",
"qX c #AFB5CC",
"wX c #91BAE3",
"eX c #A59BC5",
"rX c #C6BBC4",
"tX c #C6B5CB",
"yX c #99C8DC",
"uX c #8CC2DC",
"iX c #B8C7CA",
"pX c #A8C5D8",
"aX c #B7CAD7",
"sX c #B1CFD9",
"dX c #9BC4E5",
"fX c #95C5E8",
"gX c #A8CAE3",
"hX c #B3D1E5",
"jX c #C9C7C9",
"kX c #D7C7C7",
"lX c #C9D4C9",
"zX c #D9D5CA",
"xX c #C8CBD5",
"cX c #D7CCD3",
"vX c #C8D6D9",
"bX c #D8D8D7",
"nX c #E7CAC5",
"mX c #E9D7C9",
"MX c #F7DAC8",
"NX c #E7D9D4",
"BX c #F0D8D6",
"VX c #DBE3D5",
"CX c #FDE5CB",
"ZX c #FFEBCB",
"AX c #F9E6C7",
"SX c #FEF6C8",
"DX c #EAE4D7",
"FX c #FDECD4",
"GX c #F6E7D8",
"HX c #FFF3DB",
"JX c #FEF6D4",
"KX c #EBE2CA",
"LX c #CDD7E4",
"PX c #F6EAE3",
"IX c #E2DFE1",
"UX c #BACDBA",
/* pixels */
"4 1 4 4 4 4 2.2.4 2.,.,.2.q.3.,.2.4.4.4.4.4.6.6.5.q.0.0.0.9.0.0.8.Z.8.5.c.8.w.w.w.e.w.e.w.e.e.l.l.l.v.l.e.v.v.j.v.v.Q v.Q O.Q X.",
"4 4 4 4 4 ,.2.2.2.2.<.<.2.2.3.6.6.2.4.4.4.4.0.6.0.0.8.5.y.0.8.8.8.8.8.w.w.w.w.w.w.w.l.A.A.l.H.r.l.l.v.l.l.l.v.v.v.v.v.v.n.r.r.X.",
"4 4 4 4 ,.,.2.2.2.,.<.<.2.2.6.6.6.6.6.6.5.0.6.9.9.0.5.w.5.y.8.8.Z.c.Z.Z.Z.Z.Z.A.A.w.A.A.A.l.H.w.l.l.l.m.N.N.N.N.N.v.N.N.$.r.$.n.",
"4 ,.,.,.,.2.2.2.2.,.,.3.q.q.q.6.0.6.0.6.0.9.9.9.9.8.8.w.Z.i.D.w.Z.8.Z.Z.Z.A.Z.A.A.A.A.A.H.A.H.N.H.H.N.H.K.N.K.M.N.M.n.n.n.n.n.n.",
",.,.,.<.<.2.2.6.3.<.3.q.W r.q.r.q.9.0.9.9.9.d.i.i.8.8.Z.y.Z.w.5XZ.Z.G.S.A.A.G.A.A.A.H.A.H.H.H.K.M.K.K.m.H.M.M.M.M.N.!.!.!.!.n.!.",
",.,.,.,.<.6.2.6.7.6.q.q.! F G ! ! r.8.9.d.9.9.i.i.i.Z.D.y.Z.A.D.F.G.Z.A.J.F.F.J.H.S.H.H.H.H.K.K.K.K.M.K.K.M.M.K.!.!.XX!.!.!.!.!.",
",.,.,.<.3.6.6.6.6.6.q.F G G H H Y Y w.9.9.d.i.i.D.D.D.i.d.G.F.G.A.F.5.8.F.A.H.A.J.H.J.K.K.K.K.R.U.U.U.U.'.U.'.!.XX!.!.!.!.!.!.!.",
",.,.1.<.3.1.6.6.0.q.F G z H J H H Y r.w.i.d.i.Z.D.D.D.5X5X5XeXF.F.eXd 8.9XJ.T.J.K.T.K.R.K.R.R.R.U.U.XXU.'.'.'.^.'.^././././.~.!.",
"<.3.i u.<.7.7.6.0.e.F z b J J J D ~ r.w.d.5Xi.S.F.Z.D.8XG.G.eX5XeXeXF.T.J.J.T.J.K.J.R.R.R.{.R.R.{.{.{.'.{.{.XX X X/./. X_./././.",
"3.<.<.<.1.1.9.0.0.q.F z b J J J D ~ r.A.D.5XD.G.G.G.J.F.F.F.F.9XF.F.F.9X9XJ.T.R.R.R.R.R.R.{.{.{.'.'.{.XX X X[. X X X/././._./._.",
"7.7.<.u.u.u.9.9.8.j # z c v v v v J Y eXw.5X5XD.G.P.I.j.E.lXS.9XeXT.9X9XR.T.R.T.R.R.R.R.{.{.{.{.{.}. X}.|.|.[..X_. X_._._._.`.`.",
"7.7.u.3.1.u.u.u.i.j # z k c b b v J r.r.eX5X5X5X8XP.N.} =XHX0XT.9X9XT.9X9X9X9XR.0XR.R.{.}.XXtX}.}.|.}.|.|.[.|..X.X.X.X_._.`._._.",
"1.1.7.1.u.u.u.u.i.j # x k c c c b b Y K.eX5X8X8X5XP.m.' ~.CXbXP.9X9X9X9X0X0XR.0XR.0X}.}.}.tX|.|.|.|.|.|.|.|..X.X.X.X_..X.X`.`._.",
"1.1.1.7.u.s.d.d.u.q.# x k k c c b b r.K.8X5X8X6X8X9Xn.I ] >XDXP.9XqXqX9XtX9X0XR.0X}.rX}.}.|.rX:X|.|..X|.nX.X:X.X-X-X-XOX_..X-X_.",
"p.1.p.s.s.s.d.d.g.Z.G x k k k c c z K.eX8X8X7X8X7X9XM.I ] >XcXT.qXqXqX0X0X0XtXtXtX}.rXrXrXrXnXrXnX.XnXnXnX-X:X,X-X-X-X-XOXOXOX`.",
"p.p.s.s.s.d.s.d.d.G.2 l x c c c c z XXeX8XwXwX8X9X0X}.R o.MX}.E.0X0X0X0X0XtX0X}.}.rXrX|.rXnXnX|.nXnX|.nX:X:X-X-X-X-X-X-X+XOXOXOX",
"p.s.s.s.f.f.f.d.d.5Xr.# l z c c x Y tX9X8X8X7X7X7XqXtXXXW kXE.0X0X0X0X0XrXrXrXrXrXrXkXkXrX:XnXnXnXnX:X,X,X-X;X,X-X;X-XOX+XOX@X@X",
"p.s.s.s.s.g.f.g.g.d.qX2 # z k k G K.0X9X7XyX7XyX7XqXtX0Xr.tXR.iX0X0XjX0XrXrXjXrXkXkX|.kXnXkXnXnXnXnXMX,X>X>X;X;X;X;X;X+X+X@X@X@X",
"p.s.s.g.d.d.d.g.g.8XeXeX# l k k r.tXqX7X7XyX7XpX7XpXaXqXK.tXqXiXiXjXjXrXjXrXjXjXnXkXkXkXnXnXnXnXnX:X>X>X>X>X;X>X;X;X;X+X+X@X@X;.",
"a.a.f.d.i.2.i.wX6Xg.wXqXe.. G G XXqX7XqXqX7XqXpXpXpXpXiXqX0XaXiX0XjXtXjXjXxXkXkXkXkXnXnXnXnXmXmXMXMXMXMX>X>X>X>X>X;X;X+X+X+X:.@X",
"a.f.g.g.0.1 6.8XwXwXwXwXtXj # r.iX7X7XpXpXhXtXaXpXpXpXsXxXaXxX0XxXjXxXkXkXcXkXcXnXmXNXnXnXBXMXBXMXMXMX>X3X>X>X3X3X;X<X;X+X@X;.:.",
"a.f.d.6X5X4 D.7XwXwXg.wXqX9X0 }.aXuXgXgXqX0XqXxXiXsXiXiXaXqXxXLXxXcXjXcXkXcXzXmXNXNXBXmXMXBXMXMXMXMXMXAXAXAX3X>X<X<X;X$X$X$X$X;.",
"f.f.g.g.7X5X7X7XfXwXdXdXhXqXy.iXpXdXgXqX0Xq.J.cXxXlXlXiXvXxXcXcXcXcXcXzXcXNXNXmXNXnXnXmXGXMXCXMXCXCXMXCXAX3XAX3X3X<X<X+X$X$X:.:.",
"f.g.g.6X8X7XwX7XdXgXdXdXgX7Xy.sXpXhXgXLXtX2 e.LXxXxXiX0XxXIXcXcXkXcXmXcXzXNXmXNXNX&X%XmXGXMXMXGXGXCXZXCXAX3X3X3X3X3X<X<X$X$X$X;.",
"fXfXg.fXuXuXyXyXyXfXgXhXgX7Xi.sXhXgXhXxXIXj x.IXcXlXjXx.NXcXcXcXNXzXNXNXNXKXBXKXGXKXMXFXMXGXFXFXFXAXZXZXSX2XSX2X3X<X<X1X$X$X$X:.",
"uXg.fXfXyXyXyXyXhXhXgXhXhXLXsXsXhXLXxXLXiXiXvXjXcXbXcXkXNXcXBXBXNXzXzXNXNXNXBXmX&XGXGXFXCXFXFXFXFXAXZXAXSX2X,X2X2X2X<X1X#X#X$X$X",
"wXfXfXfXyXgXgXsXhXhXhXhXaXLXsXLXxXxXxXLXLXvXvXvXlXzXzXDXbXNXNXNXNXnXNXDXGXGXGXmX&XGXFXGXFXJXHXFXFXFXZXSXAX3XoX<X4X4X2X1X1X#X#X$X",
"wXdXdXfXyXhXsXhXhXhXhXhXhXaXlXvXLXLXLXLXvXvXvXVXbXbXPXbXbXIXNXNXGXNXNXGXGXGXGXKXMXFXGXAXHXmXAXFXFXFXFXJXSXSX%X4X2X4X4X1X1X1X#X#X",
"pXpXsXhXsXsXaXhXhXhXhXvXLXVXLXlXLXLXbXxXc.bXVXlXbXDXNX*XbXDXDXGXPXDXGXGXGXGXGXGXHXPXKXKXJXmXKXHXFXJXJXJXSXSXSXSX4X4X4X4X1X4X1X1X",
"pXsXsXsXaXvXhXvXVXvXvXvXvXsXVXvXbXvXIXbXI.lXbXPXNXBXm.kXVXVXDXDXGXDXGXPXGXGXPXHXHXHXGXFXHXZXFXHXHXJXJXZXSX4XSX4X4X4X4X4X4X4X4X1X",
"iXiXsXvXvXvXbXvXLXvXvXIXlXP.lXVXvXUXNXBXPX}.rXPXPXnX'.NXPXJXDXDXPXDXGXPXPXHXHXHXJXHXJXHXHXHXHXHXHXJXJXSXJXSX4XSX4X4X4X4XSX4X4X4X",
"iXiXiXlXvXvXbXbXVXvXVXVXbX*XIXVXbXlXzXBXBXPXPXrXBX|.PXPXDXDXDXJXGXGXGXGXHXPXHXHXGXHXJXHXJXJXJXFXHXJXJXZXSXSXoX<X4X4X4X1X4X4X4X4X",
"UXlXlXlXbXlXlXVXzXzXIXbXIXVXGXzXDXDXDXNXNXNXDXDXBXGXGXkXBXGXPXCXFXmXKXJXHXKXJXJXSXJXJXJXSXJXJXSXSX2XSXSX2XSXoX<X1X1X#X$X#X#X#X#X",
"lXlXjXjXbXzXzXNXKXVXVXbXNXNXNXBXNXKXDXGXGXGXGXGXGXGXFXKXGXCXFXFXZXAXJX,X>XJXSXSXSXSXSXSXSXSXSXSXSX4X4X<X<X4X#X#X$X:.:.>.:.:.:.>.",
"jXlXcXcXbXNXnXnX*XVXbXDXDXDXnXMXKX,XKXKXKXAXAXmXAXKXAXCXFXMXCXCXAXZXZX).oX3X,X2XSX2X2X2X2X2X2X2X1X4X1X#X$X:.:.>._ _ _ _ _ _ _ _ ",
"&X&XBXnXnXMXMX.X>XSX,X%X(.mXMXMXZXAX>X3XAXZXZXCXZXCXCXZXZXCXCXCX>XZX3X-X;X=X3X2X2X3X2X2X2X2X3X2X;X<XoX$X:.>._ _ _ _ _ _ _ _ _ _ ",
"*.*.`.*.*.*.`.`.*.`.*.&.S `.`.`.OX_.`._..X_.-X_.-X-X-X-X-X-X-X.X_._.-X=X(.$.).).~.&.).oXoX).~.(.oX).&.-.-.-.-.>.-.-.-.-.:.>.-.-.",
"S S S S S S S S C S S ( =.=.=.=.&.=.%.%.&.%.%.%.&.%.%.!.$.~.$.$.$.I o.R I I R O. .`  .O...' '  .[ ` ' ` ] ..%.=.*.*.;.;.;.-.-.#.",
"A A A A A A A A #.@.C S *.#.=.`.`.~.*.&.&.*.%.%.$.$.Q ]  . . . .P q X.O.b.X.P [ T L P [ X.P r L [ Q n.O.O.$.$.%.%.&.*.*.-.) ) ) ",
"S A A A A A A =.OX+X@.C @X`.=.*.`.*.&.`.`.`.~.~.~.~.$.$.I K I +.} { { b.V.t * 6 T a T k.V.X.[ } } R n.N.b.O.X./.`.`.@X*.-.) ) ) ",
"C Z n / A / n ;.*.-XMX..~.>X&.&.%.~.(.~.~...~.~._.n.(.o.n.o.- T } { s B.B.6 e t t h.t a } m.k.} O.| X.X.Q o.O.U &.`.@X;.=.#.#.#.",
"%.U Z n / n / @X-XMXGX-X.X-X).&.$.`...o./._.!.(. .o.X.n.C.R n.r 6 & 5 p ^ h p 8 m.9 6 Y.k.a W Y.u b.P @ 0 Q ..] *.*.;.*.*.#.*.;.",
"/._.@.$ Z C Z _.MXMXMXMX,XAX-X..$.o. .o.$.!. .Q !.O.X.n.[.n.b.T u | | { t ^ t s b.E m.0 V.T } b.= y | [ L I ..%.( ( ( ) #.#.;.@X",
"MX>XMX!.] U B $.-X:XMXMX>X:X>X).R [  .R o.X.O.^.^.^.!. X^.X.R v.V.u ^ ^ { } t 6 & w T W w X.} R u u b.C.q R ..V Z C / ( ( @.#.*.",
"V.|.&XAX%X .K q ).[.%X:XAXMXmX).| u ; ; y | b.V.,Xb.^.b.q T | V.| | |   ^ ^ * 6 6 X 6 L v.X.X.y a s b.k.T n.R > V U U @.( S @.=.",
"u %XzX&XCX&XQ K r O.:X%X:X:X%X).V.^ u k.y n.[.C.[.W b.L y R y n.0 = e = ^ O.g + 6 V.b.y b.} q y p h.Y.Y.V.X.m K V V U S S @.@.=.",
", r V.:X|.nX^.$...` ).).%X X^.].V.C.s C.T y P n.X.!.n.Q O.L P b.u .   & u ^ ^ m.E Y.U.W N.'.X.{ h.E.*XB.O.; : m M M V V V C C ( ",
"< < , %X[.&X%X(.%X .oX).^.V.^.*XKX| = } X.} ^.%X^.n.R 0 O L K R s ^ = . h t h h.w 2 y a E m.j.j.I.E.g y X.0 m m M M M V V Z C @.",
"] u < ` %XoX%X].C. .].[.^.V.&XO.zXk.* = T ].&XC.} b.y     m R P } 6 = . p t g { w @ s p 6 c.I.W.E.z.f B.} T ; > m I m M V V S Q ",
";.+., < % +.O.} ].n.M. XV.Y.Y.B.} *Xa X T k.I.B.I.T b.R X 0 T [ | 0 . X 8 p h h c.x.M.g p L.W.iXP.h.x.E.m.y q : > I m U U V V C ",
"#X&., < % % . | ].].].'.|.].O.Y.U.].s 5 { g H.cXx.j s a E E E b.| u & 5 t i 8 7 E I.B.E c.I.I.qXL.I.I.B.l.0 - - I I M M V N N N ",
"<XoX, > r , . & T y M.].M.C.M.*XY.j.j.w a h.x.R.j.a j a U.Y.j.E | 0 6 e p p 7 ^ x.E s h.W.I.L.P.E.Y.I.k.0 @ - - I m m $ M N N V ",
"oX).+.` < = = < V.].].'.b.} y M.t 3 t g t.^ ^ L.H.g X j h.U.s w t X   h 8 7 3 L.0Xp 8 c.I.L.W.T.E.h.X @ * * + * : : m m N V M Q ",
"+.` oX%X| ^ = X B.*XkXW b.].|.Y.^ ^ p h f h d ^ h.7 X h p c.a     .   h e 7 z.I.h 5 p I.x.x.E.E.U.a & 0 @ @ - q q : F K M M M V ",
"+.] +.oX%XKXQ.Q.h.}.}.8 V.Y.{.s Y.^ e h ^ h y.Q.g ^ p 8 w h h 9 9 s s p i 7 z.f 3 8 x.I.L.I.E.I.k.T * * 6 @ 0 @ q - m $ m > m m ",
"] +.oX).%X*XKX| ^ h.m.I.U.E.v.9 6 6 p 6 ^ z.t.^ c.f i 8 5 g g p c.f t 7 7 f f i d z.k.5.L.E.x.{ | 0 @ 0 0 @ @ - - @ @ - - K m m ",
"%.&.&. .+.*XzXY.B.B.I.m.x.jXE.h.t.z.6 & i ^ 5 X 7 t.e d 3 f t.i h.7 3 3 i t.t.P.L.Q.t.L.W.Q.t.{ y - % 0 * 0 0 @ @ O - - m m K m ",
"%.] O.` +.%X%XKXzXzXzXE.j.B.I.g ^ e p 3 X 3 1 o ^ 7 t.f 3 i f ^ ^ X X f P.L.L.L.y.t.z.iXI.Q.k.T ; : + % q w @ . @ @ % > I m $ m ",
"%.+.' K ` C.Y.*X*XzXzXzX*XY.B.5 3 7 ^ X   3 4 o i t.i t.f f ^ 3 3 i t.W.L.t.t.y.L.L.iXW.z.Q.j.t y r % * q 0 + ; 0 @ - - m > $ K ",
"' ] : , ` ` | C.*XzXzX*XlXzXzXI.e 3 4 e o X d o o 4 h 7 7 4 3 i t.W.L.z.t.^ z.P.P.pXW.Q.Q.B.T q : % ; y 0 + + ; 0 - q @ $ : m U ",
"' K : I P r ; [ | C.*XC.%XY.*X*X^ ^ = 3   X ^ e 7 3 ^ i 5 7 ^ Q.L.L.z.P.L.L.L.W.P.P.L.L.Y.s + ; % % r P + & + + + ; - O O m N ' ",
" .I [ ` P [ ; r P r P ` O.+.+.*XUX^ 5 e X X ^ Q.UX^ ^ Q.^ ^ t.^ P.t.t.P.z.L.Q.y.W.P.W.W.x.w + * r , r ; + * X . + * % % $ > B ] ",
"[ R C.[ u [ P r K , , , , / ` +.oXUX^ u ^ e u ^ e = 5 ^ ^ | ^ Q.z.^ ^ y.L.y.i 7 P.P.W.L.g t y r , % ; ; % & . . @ @ % ; $ B @.] ",
"C.b.C.C.[ 0 [ r ` I , ` % , ` ^ | UX+.^ ^ e u e = ^ = u e = = e ^ y.i ^ L.^ 5 y.y.P.L.z.a 0 q ; % < % = . & X @ X * % , B ' %.] "
};
